<?xml version="1.0" encoding="utf-8"?>
<!-- Generator: Adobe Illustrator 25.2.0, SVG Export Plug-In . SVG Version: 6.00 Build 0)  -->
<svg version="1.1" id="Layer_1" xmlns="http://www.w3.org/2000/svg" xmlns:xlink="http://www.w3.org/1999/xlink" x="0px" y="0px"
	 viewBox="0 0 1000 227.09" style="enable-background:new 0 0 1000 227.09;" xml:space="preserve">
<style type="text/css">
	.st0{fill:#2D2E4B;}
	.st1{fill:#0062FF;}
	.st2{fill:#8E8CB9;}
</style>
<g>
	<g>
		<g>
			<g>
				<path class="st0" d="M113.55,213.15c-54.92,0-99.61-44.68-99.61-99.61c0-54.92,44.68-99.61,99.61-99.61
					c54.92,0,99.61,44.68,99.61,99.61C213.16,168.47,168.48,213.15,113.55,213.15z M113.55,18.43c-52.45,0-95.12,42.67-95.12,95.12
					c0,52.45,42.67,95.12,95.12,95.12s95.12-42.67,95.12-95.12C208.67,61.1,166,18.43,113.55,18.43z"/>
			</g>
			<g>
				<path class="st0" d="M222.61,104.07h4.5C222.53,48.78,178.32,4.58,123.03,0v4.5C175.85,9.05,218.05,51.25,222.61,104.07z"/>
				<path class="st0" d="M4.5,104.07C9.05,51.25,51.26,9.05,104.07,4.5V0C48.78,4.58,4.58,48.78,0,104.07H4.5z"/>
				<path class="st0" d="M4.5,123.03H0c4.58,55.29,48.78,99.49,104.07,104.07v-4.5C51.26,218.04,9.05,175.84,4.5,123.03z"/>
				<path class="st0" d="M222.61,123.03c-4.55,52.82-46.76,95.01-99.58,99.57v4.5c55.29-4.58,99.5-48.78,104.08-104.07H222.61z"/>
			</g>
		</g>
		<g>
			<g>
				<path class="st0" d="M113.91,104.12c0.62,0,1.22,0.05,1.83,0.09l0.05-0.03L87.39,48.39L69.75,83.26l18.96,37.63
					C92.85,111.05,102.59,104.12,113.91,104.12z"/>
				<polygon class="st0" points="128.36,95.48 157.44,152.69 192.53,152.69 146.09,60.58 				"/>
				<polygon class="st0" points="34.58,152.69 61.55,99.47 78.92,134.03 69.63,152.69 				"/>
			</g>
			
				<ellipse transform="matrix(0.2298 -0.9732 0.9732 0.2298 -40.185 212.107)" class="st1" cx="113.91" cy="131.44" rx="21.11" ry="21.11"/>
		</g>
	</g>
	<g>
		<g>
			<g>
				<g>
					<g>
						<path class="st1" d="M838.49,105.19c0-6.4,1.09-12.46,3.25-18.1c-0.94-1.14-1.94-2.24-3.07-3.27
							c-5.62-4.59-11.6-7.52-17.93-8.79l25.88-25.41l0.24-18.88h-70.64v19h43.22l-27.07,26.48l0.36,17.69l10.33-1.19
							c2.29-0.31,5.82-0.22,10.57,0.3c4.75,0.52,8.86,2.16,12.35,4.93c0.95,0.79,1.9,2.04,2.85,3.74c0.95,1.7,1.42,4.21,1.42,7.54
							c0,5.3-1.47,9.42-4.39,12.35c-3.01,2.61-6.37,4.35-10.09,5.22c-3.72,0.87-6.49,1.27-8.31,1.19h-0.24h-0.24
							c-0.08,0-0.95-0.06-2.61-0.18c-1.66-0.12-3.72-0.49-6.17-1.13c-2.45-0.63-4.93-1.7-7.42-3.21c-2.49-1.5-4.65-3.6-6.47-6.29
							l-16.03,10.21c4.19,6.17,9,10.65,14.42,13.42c5.42,2.77,10.47,4.49,15.14,5.16c4.67,0.67,7.68,1.01,9.02,1.01
							c0.16,0,0.28,0,0.36,0c1.03,0.08,3.32-0.08,6.89-0.48c3.56-0.39,7.6-1.44,12.11-3.15c4.51-1.7,8.79-4.41,12.82-8.13
							c2.03-2.05,3.72-4.28,5.14-6.65C840.42,121.45,838.49,113.6,838.49,105.19z"/>
						<path class="st1" d="M988.84,81.74C981.4,74.58,972.1,71,960.94,71l-15.32,0.12l1.07-21.37h46.54v-19h-64.59l-2.06,39.8
							c2.56,2.73,4.85,5.72,6.82,9.01c2.03,3.38,3.59,6.95,4.74,10.66l19.7-0.22h3.09c5.94,0,10.76,1.74,14.49,5.22
							c3.72,3.48,5.58,7.95,5.58,13.42c0,5.38-2.08,9.96-6.23,13.71c-4.16,3.76-9.28,5.64-15.38,5.64h-3.21
							c-7.1,0-13-2.97-17.71-8.89c-1.16,4.1-2.85,8.02-5.07,11.73c-1.29,2.16-2.73,4.18-4.28,6.1c2.49,2.16,5.23,4.01,8.24,5.55
							c5.9,3.01,12.17,4.51,18.82,4.51h3.21c11.4,0,21.02-3.7,28.85-11.1c7.84-7.4,11.75-16.48,11.75-27.25
							C1000,97.87,996.28,88.91,988.84,81.74z"/>
					</g>
					<path class="st1" d="M889.38,62.63c7.76,0,14.8,1.88,21.13,5.64c6.33,3.76,11.4,8.81,15.2,15.14c3.8,6.33,5.7,13.34,5.7,21.02
						c0,7.68-1.9,14.68-5.7,21.02c-3.8,6.33-8.87,11.38-15.2,15.14c-6.33,3.76-13.38,5.64-21.13,5.64c-7.68,0-14.7-1.88-21.07-5.64
						c-6.37-3.76-11.44-8.81-15.2-15.14c-3.76-6.33-5.64-13.34-5.64-21.02c0-8.47,2.26-16.07,6.77-22.8l31.58-51.65h22.2
						l-19.95,32.65c0.16,0,0.28,0,0.36,0C888.74,62.63,889.06,62.63,889.38,62.63z M905.65,120.51c4.51-4.47,6.77-9.83,6.77-16.09
						c0-6.33-2.26-11.73-6.77-16.21c-4.51-4.47-9.93-6.71-16.27-6.71c-7.84,0-14.13,3.32-18.88,9.97l-1.07,1.66
						c-1.98,3.4-2.97,7.17-2.97,11.28c0,6.25,2.24,11.62,6.71,16.09c4.47,4.47,9.87,6.71,16.21,6.71
						C895.71,127.22,901.13,124.98,905.65,120.51z"/>
				</g>
				<g>
					<g>
						<path class="st0" d="M374.01,146.86l-11.58-59.65l-28.91,53.9l-29.01-53.9l-11.58,59.65h-19.24l16.56-86.07l5.74-29.49
							l14.17,26.42l23.36,43.37l23.36-43.37l14.17-26.42l5.65,29.49l16.56,86.07H374.01z"/>
						<path class="st0" d="M488.73,146.86h-81.19V127.9V98.51V79.55v-29.3V31.3h81.19v18.96h-62.23v29.3h62.23v18.96h-62.23v29.39
							h62.23V146.86z"/>
						<path class="st0" d="M503,31.3h51.51c28.44,0,51.51,23.27,51.51,51.61v12.35c0,28.34-23.07,51.61-51.51,51.61H503V31.3z
							 M521.96,50.25v77.65h32.55c17.9,0,32.55-14.74,32.55-32.65V82.9c0-17.9-14.65-32.65-32.55-32.65H521.96z"/>
						<path class="st0" d="M620.3,31.3h18.96v115.56H620.3V31.3z"/>
						<path class="st0" d="M744.3,146.86l-10.24-21.45h-49.02l-10.34,21.45h-12.93h-8.23l8.23-16.95l2.2-4.5l9.19-18.96l25.85-53.33
							l10.53-21.83l10.44,21.83l25.85,53.33l9.29,18.96l2.11,4.5l8.23,16.95h-8.23H744.3z M694.13,106.45h30.73l-15.32-31.69
							L694.13,106.45z"/>
					</g>
				</g>
			</g>
		</g>
		<g>
			<path class="st2" d="M286.23,185.64v10.61h-3.43V185.6l-9.12-15.68h3.89l6.98,12.78l6.91-12.78h3.89L286.23,185.64z"/>
			<path class="st2" d="M318.25,193.67c-1.9-1.95-2.84-4.84-2.84-8.68v-3.85c0-3.84,0.96-6.73,2.88-8.68
				c1.92-1.94,4.64-2.92,8.15-2.92c3.48,0,6.17,0.97,8.07,2.92c1.89,1.95,2.84,4.84,2.84,8.68v3.85c0,3.84-0.96,6.73-2.88,8.68
				c-1.92,1.95-4.63,2.92-8.14,2.92C322.84,196.59,320.15,195.61,318.25,193.67z M332.04,191.4c1.25-1.37,1.87-3.5,1.87-6.37v-3.7
				c0-2.98-0.62-5.16-1.87-6.56c-1.25-1.4-3.13-2.1-5.65-2.1c-2.54,0-4.43,0.7-5.66,2.1c-1.23,1.4-1.85,3.58-1.85,6.56v3.7
				c0,2.87,0.62,5,1.85,6.37c1.23,1.37,3.12,2.06,5.66,2.06C328.92,193.46,330.8,192.77,332.04,191.4z"/>
			<path class="st2" d="M362.85,193.94c-1.84-1.69-2.77-4.06-2.77-7.12v-16.9h3.47v16.67c0,4.55,2.33,6.83,6.98,6.83
				c4.65,0,6.98-2.28,6.98-6.83v-16.67h3.47v16.9c0,3.05-0.92,5.42-2.77,7.12c-1.84,1.69-4.41,2.54-7.69,2.54
				C367.25,196.47,364.69,195.63,362.85,193.94z"/>
			<path class="st2" d="M448.2,173.01h-8.51v23.23h-3.43v-23.23h-8.51v-3.09h20.45V173.01z"/>
			<path class="st2" d="M489.59,169.92v26.32h-3.43v-11.9h-13.73v11.9h-3.47v-26.32h3.47v11.37h13.73v-11.37H489.59z"/>
			<path class="st2" d="M513.09,169.92h3.47v26.32h-3.47V169.92z"/>
			<path class="st2" d="M562.07,169.92v26.32h-3.47l-15.07-20.37v20.37h-3.47v-26.32h3.47l15.07,20.41v-20.41H562.07z"/>
			<path class="st2" d="M594.72,182.7l-5.95,6.33v7.21h-3.47v-26.32h3.47v14.72l13.54-14.72h4.35l-9.65,10.34l10.87,15.98h-4.16
				L594.72,182.7z"/>
			<path class="st2" d="M653.74,187.51h3.09v6.83l-3.09,2.78V187.51z"/>
			<path class="st2" d="M737.05,169.92l-7.48,26.32h-3.51l-6.14-22.01l-6.14,22.01h-3.51l-7.63-26.32h3.43l6.07,21.44l5.61-21.44
				h4.31l5.88,21.44l5.76-21.44H737.05z"/>
			<path class="st2" d="M761.23,173.01v8.32h12.78v3.09h-12.78v8.74h14.91v3.09h-18.39v-26.32h18.39v3.09H761.23z"/>
			<path class="st2" d="M843.76,184.93c0.75,1.06,1.13,2.38,1.13,3.99c0,2.39-0.75,4.21-2.25,5.46c-1.5,1.25-3.69,1.87-6.56,1.87
				h-11.79v-26.32h11.56c2.8,0,4.93,0.6,6.39,1.79c1.46,1.2,2.19,2.95,2.19,5.26c0,1.35-0.34,2.52-1.03,3.51
				c-0.69,0.99-1.67,1.72-2.94,2.17C841.91,183.12,843.01,183.88,843.76,184.93z M827.76,172.97v8.28h8.09
				c1.73,0,3.02-0.34,3.87-1.01c0.85-0.67,1.28-1.71,1.28-3.11c0-1.4-0.42-2.44-1.26-3.13c-0.84-0.69-2.11-1.03-3.81-1.03H827.76z
				 M840.12,192.08c0.86-0.74,1.3-1.87,1.3-3.4c0-2.92-1.83-4.39-5.49-4.39h-8.16v8.89h8.39
				C837.93,193.19,839.25,192.82,840.12,192.08z"/>
			<path class="st2" d="M870.39,193.94c-1.84-1.69-2.77-4.06-2.77-7.12v-16.9h3.47v16.67c0,4.55,2.32,6.83,6.98,6.83
				c4.65,0,6.98-2.28,6.98-6.83v-16.67h3.47v16.9c0,3.05-0.92,5.42-2.77,7.12c-1.85,1.69-4.41,2.54-7.69,2.54
				C874.79,196.47,872.23,195.63,870.39,193.94z"/>
			<path class="st2" d="M912.02,169.92h3.47v26.32h-3.47V169.92z"/>
			<path class="st2" d="M938.99,169.92h3.47v23.23h14.76v3.09h-18.23V169.92z"/>
			<path class="st2" d="M978.82,169.92h9.73c3.51,0,6.22,0.95,8.13,2.86c1.91,1.91,2.86,4.76,2.86,8.55v3.47
				c0,3.79-0.96,6.64-2.88,8.56c-1.92,1.92-4.65,2.88-8.18,2.88h-9.65V169.92z M988.55,193.15c2.54,0,4.43-0.67,5.67-2.02
				c1.23-1.35,1.85-3.43,1.85-6.26v-3.36c0-2.9-0.62-5.04-1.85-6.43c-1.24-1.39-3.12-2.08-5.67-2.08h-6.25v20.14H988.55z"/>
		</g>
	</g>
</g>
</svg>
